<?xml version="1.0" standalone="no"?>
<!DOCTYPE svg PUBLIC "-//W3C//DTD SVG 20010904//EN"
 "http://www.w3.org/TR/2001/REC-SVG-20010904/DTD/svg10.dtd">
<svg version="1.0" xmlns="http://www.w3.org/2000/svg"
 width="260.000000pt" height="260.000000pt" viewBox="0 0 260.000000 260.000000"
 preserveAspectRatio="xMidYMid meet">
<metadata>
Created by potrace 1.11, written by Peter Selinger 2001-2013
</metadata>
<g transform="translate(0.000000,260.000000) scale(0.100000,-0.100000)"
fill="#000000" stroke="none">
<path d="M41 2542 c-14 -5 -16 -2208 -1 -2217 6 -3 10 0 10 7 0 9 3 9 10 -2 6
-10 10 -11 10 -2 0 14 21 12 32 -3 5 -6 8 -6 8 1 0 11 93 10 111 -2 5 -3 9 -2
9 3 0 11 49 8 80 -5 17 -6 29 -6 38 1 9 7 16 7 24 -1 8 -8 17 -8 31 -1 14 8
18 8 13 0 -5 -7 9 -11 41 -12 26 0 57 -2 68 -5 34 -7 109 -17 133 -17 12 -1
22 -5 22 -11 0 -5 3 -7 6 -4 3 3 33 -1 67 -8 34 -8 68 -16 77 -18 8 -2 22 -6
30 -9 8 -4 26 -8 40 -9 14 -2 27 -6 30 -10 3 -4 15 -9 25 -11 11 -2 27 -7 35
-10 8 -3 33 -11 55 -18 22 -7 56 -19 75 -27 19 -9 37 -16 40 -17 15 -2 126
-60 128 -67 3 -7 77 27 92 42 3 3 11 6 19 8 8 2 32 12 54 23 23 10 47 19 54
19 7 0 13 5 13 12 0 6 3 9 6 5 3 -3 29 3 58 14 28 12 52 20 54 20 1 -1 4 0 7
0 14 4 23 6 65 18 25 7 53 15 63 17 10 2 27 6 37 9 10 3 29 8 42 10 13 3 34 7
48 10 72 14 98 18 127 19 18 1 33 4 33 7 0 3 6 6 13 6 6 1 35 2 64 4 29 1 50
6 47 11 -3 4 5 4 18 -1 15 -5 31 -5 41 0 12 7 17 6 17 -3 0 -9 2 -10 8 -2 4 7
21 12 37 12 17 1 83 2 148 3 l117 2 -2 1106 -3 1106 -65 -2 c-36 0 -101 -5
-145 -9 -44 -4 -97 -8 -118 -8 -20 0 -37 -3 -37 -7 0 -3 -16 -5 -35 -4 -19 1
-35 -3 -35 -8 0 -5 -7 -7 -15 -4 -8 4 -17 2 -20 -3 -4 -6 -12 -10 -18 -10 -7
0 -6 4 3 11 12 9 11 9 -5 4 -26 -10 -62 -16 -102 -18 -18 -1 -33 -5 -33 -9 0
-4 -7 -5 -15 -2 -8 4 -15 1 -15 -6 0 -10 -3 -10 -14 -1 -9 8 -15 8 -18 2 -1
-6 -20 -12 -40 -13 -21 -2 -38 -6 -38 -10 0 -4 -6 -5 -14 -2 -8 3 -17 1 -20
-5 -4 -6 -13 -8 -21 -4 -9 3 -15 -1 -15 -8 0 -11 -3 -11 -10 1 -7 12 -10 12
-10 1 0 -7 -6 -11 -15 -7 -8 3 -15 1 -15 -5 0 -6 -4 -8 -8 -5 -5 3 -21 -1 -36
-9 -18 -10 -24 -10 -19 -2 5 9 3 9 -9 0 -8 -7 -18 -10 -21 -6 -4 3 -7 0 -7 -7
0 -7 -3 -10 -7 -7 -3 4 -13 1 -21 -6 -13 -10 -14 -9 -8 2 6 9 1 8 -16 -3 -14
-9 -28 -13 -31 -9 -4 3 -7 1 -7 -6 0 -8 -7 -11 -15 -7 -8 3 -15 1 -15 -4 0 -6
-3 -9 -7 -8 -5 1 -21 -4 -36 -10 -16 -7 -33 -12 -38 -12 -5 0 -9 -5 -9 -11 0
-5 -4 -8 -9 -4 -5 3 -12 1 -16 -5 -4 -6 -11 -8 -16 -5 -5 4 -9 -2 -10 -12 0
-10 -3 -13 -6 -5 -2 6 -16 12 -29 12 -13 0 -24 5 -24 10 0 6 -12 10 -26 10
-14 0 -23 4 -19 10 3 6 -5 10 -19 10 -14 0 -28 5 -31 10 -4 6 -10 8 -15 5 -5
-3 -11 -1 -15 5 -4 6 -11 8 -16 5 -5 -4 -9 -2 -9 3 0 5 -14 12 -30 15 -44 9
-52 12 -79 26 -13 7 -21 8 -17 3 3 -6 -7 -4 -24 4 -16 9 -34 13 -39 10 -5 -4
-11 -2 -13 3 -1 5 -19 12 -38 14 -19 3 -35 6 -35 7 0 1 -11 4 -60 14 -5 1 -15
5 -22 9 -6 4 -14 1 -16 -5 -4 -10 -6 -10 -6 0 -1 6 -14 12 -30 12 -17 0 -33 5
-36 10 -5 8 -11 8 -20 0 -7 -6 -15 -7 -17 -2 -1 6 -21 12 -44 14 -23 3 -46 8
-52 12 -6 3 -14 2 -17 -4 -5 -8 -11 -7 -21 1 -8 6 -14 8 -14 4 0 -4 -8 -1 -17
6 -15 12 -16 12 -8 -1 7 -12 3 -11 -17 2 -18 12 -29 14 -33 7 -5 -6 -12 -6
-23 3 -13 11 -14 11 -7 -1 6 -10 4 -12 -5 -6 -14 9 -70 16 -147 18 -29 1 -53
4 -53 7 0 6 -111 8 -129 2z"/>
</g>
</svg>
