<?xml version="1.0" standalone="no"?>
<!DOCTYPE svg PUBLIC "-//W3C//DTD SVG 20010904//EN"
 "http://www.w3.org/TR/2001/REC-SVG-20010904/DTD/svg10.dtd">
<svg version="1.0" xmlns="http://www.w3.org/2000/svg"
 width="260.000000pt" height="260.000000pt" viewBox="0 0 260.000000 260.000000"
 preserveAspectRatio="xMidYMid meet">
<metadata>
Created by potrace 1.11, written by Peter Selinger 2001-2013
</metadata>
<g transform="translate(0.000000,260.000000) scale(0.100000,-0.100000)"
fill="#000000" stroke="none">
<path d="M335 2538 c-3 -7 -4 -506 -3 -1108 l3 -1095 130 -7 c72 -3 162 -11
201 -17 225 -34 455 -116 601 -214 29 -20 55 -31 59 -26 12 21 165 102 264
140 183 72 350 106 575 117 l130 7 3 1099 c1 645 -2 1104 -7 1109 -5 5 -47 4
-102 -2 -341 -42 -545 -95 -756 -197 -62 -30 -115 -54 -118 -54 -3 0 -56 24
-118 54 -206 100 -401 152 -714 191 -143 18 -142 18 -148 3z m233 -118 c54
-11 122 -26 152 -35 30 -8 91 -24 135 -35 119 -31 219 -68 320 -119 l90 -46 3
-983 2 -982 -78 39 c-160 80 -421 151 -647 175 l-110 11 -3 985 c-1 542 0 991
3 998 6 16 20 15 133 -8z"/>
</g>
</svg>
